<?xml version="1.0" encoding="UTF-8"?>
<svg version="1.1" xmlns="http://www.w3.org/2000/svg" width="1024" height="1024">
<path d="M0 0 C337.92 0 675.84 0 1024 0 C1024 337.92 1024 675.84 1024 1024 C686.08 1024 348.16 1024 0 1024 C0 686.08 0 348.16 0 0 Z " fill="#FDFCFD" transform="translate(0,0)"/>
<path d="M0 0 C0.83354004 0.14985352 1.66708008 0.29970703 2.52587891 0.45410156 C13.75084645 2.52457727 24.4131048 5.55102032 34.59375 10.83984375 C35.20379883 11.15590576 35.81384766 11.47196777 36.44238281 11.79760742 C38.14406735 12.69418648 39.830455 13.61962835 41.515625 14.546875 C49.33397732 17.80744346 58.02733565 17.18245914 66.375 17.1875 C67.43460938 17.19974609 68.49421875 17.21199219 69.5859375 17.22460938 C79.69987053 17.24320116 88.47423134 16.42691439 97.25 11.1875 C111.66249724 3.06395904 126.82002798 0.43410267 143 -2 C144.02907471 -2.17724609 145.05814941 -2.35449219 146.1184082 -2.53710938 C151.18785552 -3.14165508 156.19175001 -3.18139422 161.29296875 -3.203125 C162.92881172 -3.21378242 162.92881172 -3.21378242 164.59770203 -3.22465515 C210.09000407 -3.45335503 210.09000407 -3.45335503 231 0 C231.76092957 0.12348816 232.52185913 0.24697632 233.30584717 0.37420654 C239.48154432 1.37760481 245.64912361 2.42358909 251.8125 3.5 C252.67059265 3.64929962 253.5286853 3.79859924 254.41278076 3.9524231 C256.86711191 4.38465187 259.31857637 4.83030854 261.76953125 5.28125 C262.4974437 5.40938583 263.22535614 5.53752167 263.97532654 5.66954041 C274.69000364 7.69000364 274.69000364 7.69000364 278 11 C278.33781357 15.61735556 278.3250399 20.24687772 278.375 24.875 C278.41238281 26.18082031 278.44976563 27.48664063 278.48828125 28.83203125 C278.49988281 30.08113281 278.51148438 31.33023438 278.5234375 32.6171875 C278.54325684 33.76815918 278.56307617 34.91913086 278.58349609 36.10498047 C278 39 278 39 275.66259766 40.80517578 C274.78394043 41.19946777 273.9052832 41.59375977 273 42 C267.95865129 44.29925009 267.95865129 44.29925009 264 48 C262.92287444 51.05126196 262.92287444 51.05126196 262.125 54.6875 C261.95991943 55.37593994 261.79483887 56.06437988 261.62475586 56.77368164 C260.37084353 62.10701973 259.27977791 67.47190655 258.19165039 72.84106445 C254.17235293 92.62249623 249.86604357 113.43607355 236 129 C235.4534375 129.6496875 234.906875 130.299375 234.34375 130.96875 C222.75733124 143.73344863 204.88127611 149.76518984 188 151 C162.67412425 151.98446964 134.39815971 150.70436914 114.6875 132.625 C112.75628264 130.78092143 110.87791389 128.89978188 109 127 C107.99646484 126.01193359 107.99646484 126.01193359 106.97265625 125.00390625 C92.01819106 109.23559261 85.56903718 85.91249877 80.91015625 65.2734375 C80.65999756 64.18554932 80.65999756 64.18554932 80.40478516 63.07568359 C79.96854823 61.13791641 79.5593914 59.19410816 79.15234375 57.25 C77.75708146 53.31488738 76.33772489 51.50095633 73 49 C69.79444046 48.32509115 69.79444046 48.32509115 66.4375 48.5625 C65.32246094 48.58441406 64.20742188 48.60632813 63.05859375 48.62890625 C59.2268774 49.09034292 59.2268774 49.09034292 56 51 C52.47358014 56.34650752 51.55057619 62.65189398 50.1875 68.8125 C45.24267715 90.13069423 38.2480293 110.03806036 24 127 C23.19175781 127.97839844 23.19175781 127.97839844 22.3671875 128.9765625 C9.62931603 142.99462206 -10.61830844 150.29018473 -29.15795898 151.28759766 C-32.7174141 151.41076828 -36.27279589 151.42247876 -39.83398438 151.39111328 C-41.99933804 151.37500492 -44.16282651 151.39108519 -46.328125 151.41015625 C-64.00640834 151.4373151 -81.71508477 148.04700111 -96 137 C-96.68707031 136.47664062 -97.37414062 135.95328125 -98.08203125 135.4140625 C-119.05549395 118.33051544 -123.30779739 88.1064756 -127.90844727 63.07788086 C-128.2534729 61.24495483 -128.2534729 61.24495483 -128.60546875 59.375 C-128.90167114 57.74691406 -128.90167114 57.74691406 -129.20385742 56.0859375 C-130.72541486 50.18821104 -132.89411967 46.36523931 -138 43 C-140.30431985 41.90642448 -142.63269778 40.9560259 -145 40 C-147.76129145 37.23870855 -146.23539154 28.84650629 -146.25 25.125 C-146.270625 23.81917969 -146.29125 22.51335937 -146.3125 21.16796875 C-146.31765625 19.91886719 -146.3228125 18.66976563 -146.328125 17.3828125 C-146.3374707 16.23184082 -146.34681641 15.08086914 -146.35644531 13.89501953 C-146 11 -146 11 -144.66381836 9.1652832 C-134.4725299 2.02764273 -114.99145451 1.73181924 -103 0 C-101.4540918 -0.23082275 -101.4540918 -0.23082275 -99.87695312 -0.46630859 C-67.65022355 -5.0980247 -32.07325281 -6.02368417 0 0 Z " fill="#0D1821" transform="translate(442,396)"/>
<path d="M0 0 C0.66 0 1.32 0 2 0 C14.67771534 32.82048133 10.73525432 70.06701365 -3.0703125 101.84765625 C-9.57178052 116.30318548 -17.55132766 129.03652837 -28 141 C-28.85464844 141.98871094 -29.70929688 142.97742188 -30.58984375 143.99609375 C-40.55770594 155.32575483 -52.00783473 164.3652962 -65 172 C-65.68916504 172.40750488 -66.37833008 172.81500977 -67.08837891 173.23486328 C-85.57871977 183.99295504 -105.90902969 190.60351629 -127 194 C-128.54034912 194.2638147 -128.54034912 194.2638147 -130.11181641 194.53295898 C-141.48977973 196.28972402 -152.76026057 196.3498688 -164.25 196.3125 C-165.267453 196.31233887 -166.28490601 196.31217773 -167.33319092 196.31201172 C-180.28961858 196.29777081 -192.89572555 195.80641779 -205.74682617 194.08081055 C-239.12497996 189.71905864 -273.52740906 194.00779461 -300.8125 214.9375 C-302.9005236 216.59710629 -304.94978087 218.29282407 -307 220 C-308.30904297 221.06154297 -308.30904297 221.06154297 -309.64453125 222.14453125 C-318.65342348 229.79144922 -325.8824946 239.08358155 -331.625 249.375 C-334.28892123 253.80190559 -334.28892123 253.80190559 -337.42578125 254.67578125 C-339.72814877 254.68652324 -341.75749331 254.50341987 -344 254 C-345.17225393 249.78266452 -345.21624558 245.65229147 -345.2734375 241.30078125 C-345.28601089 240.44152039 -345.29858429 239.58225952 -345.3115387 238.69696045 C-345.53607093 219.63219126 -345.54156294 201.42232621 -340 183 C-339.74299316 182.14519043 -339.48598633 181.29038086 -339.22119141 180.40966797 C-332.71321806 159.63928525 -321.93954844 141.79180456 -307 126 C-306.25234375 125.18789062 -305.5046875 124.37578125 -304.734375 123.5390625 C-278.05380359 95.53329715 -239.26490717 83.60307673 -202 78 C-201.19062988 77.87705566 -200.38125977 77.75411133 -199.54736328 77.62744141 C-189.11780634 76.08395963 -178.64302656 74.95136657 -168.16015625 73.84375 C-138.44986247 70.83917304 -138.44986247 70.83917304 -109 66 C-107.93942383 65.79294434 -106.87884766 65.58588867 -105.78613281 65.37255859 C-68.49513167 57.9946116 -29.44420036 44.60912633 -7.09350586 11.73657227 C-4.54617229 7.91416516 -2.16591836 4.04932563 0 0 Z " fill="#544CD9" transform="translate(671,130)"/>
<path d="M0 0 C0.7013205 0.00027191 1.40264099 0.00054382 2.12521362 0.00082397 C49.52249902 0.08499902 49.52249902 0.08499902 61.3125 11.875 C69.21863829 21.89113661 68.66083686 37.11289987 67.29248047 49.10058594 C64.41913633 69.88322107 60.68869942 93.96775048 43.625 108.1875 C25.49722169 120.15183369 1.15984353 120.75337975 -19.6875 117 C-34.75736084 113.36420494 -48.67088132 106.23734142 -57.44140625 93.08984375 C-69.52207451 73.25769854 -75.93511187 50.36118152 -72.984375 27.109375 C-71.1910364 19.79807149 -66.58850793 14.35946664 -60.63671875 9.87890625 C-43.57989198 0.15916239 -18.94523408 -0.0276736 0 0 Z " fill="#FCFCFC" transform="translate(615.375,410.8125)"/>
<path d="M0 0 C3.08654176 0.0031597 6.17212057 -0.02040597 9.25854492 -0.0456543 C55.82337032 -0.19471552 55.82337032 -0.19471552 70.74487305 12.65161133 C77.94865912 20.42075783 79.77021815 28.82959753 79.60424805 39.24145508 C78.22017351 62.71281118 69.13579971 87.09703084 52.1628418 103.50317383 C38.20131659 115.33335128 21.63223157 117.89184549 3.8503418 117.75317383 C3.17151947 117.75013245 2.49269714 117.74709106 1.79330444 117.74395752 C-8.21380585 117.67766673 -17.36134604 117.22293428 -26.7121582 113.31567383 C-27.80141602 112.86836914 -28.89067383 112.42106445 -30.01293945 111.96020508 C-42.47377011 106.28512591 -49.46350565 96.86251424 -54.50268555 84.35327148 C-61.71317995 64.48901845 -66.55142113 36.53626189 -58.7121582 16.31567383 C-55.4390994 10.10814851 -51.08185354 5.90298322 -44.4621582 3.62817383 C-29.98106348 -0.03445247 -14.8398512 -0.03162649 0 0 Z " fill="#FCFCFC" transform="translate(395.712158203125,411.684326171875)"/>
<path d="M0 0 C67.54545455 0 67.54545455 0 88 15 C88.72960937 15.53367187 89.45921875 16.06734375 90.2109375 16.6171875 C100.7447307 25.05229394 106.24423636 38.03248573 109 51 C110.2739877 70.50359357 108.97408307 88.58483876 96 104.1875 C83.45541744 117.23470356 67.46293405 122.82492108 50 126 C33.5 126 17 126 0 126 C0 84.42 0 42.84 0 0 Z " fill="#0E1821" transform="translate(499,656)"/>
<path d="M0 0 C1.57402084 -0.01925285 1.57402084 -0.01925285 3.17984009 -0.03889465 C4.32238251 -0.04628159 5.46492493 -0.05366852 6.64208984 -0.0612793 C7.82209564 -0.06935104 9.00210144 -0.07742279 10.21786499 -0.08573914 C12.72807338 -0.09960078 15.23830077 -0.11031357 17.74853516 -0.11816406 C21.53895638 -0.13520991 25.32846681 -0.17905757 29.11865234 -0.22338867 C48.26827277 -0.34694788 65.35467049 0.32651698 80.22802734 13.80200195 C89.13399588 23.15959161 91.38713608 33.67297584 91.19287109 46.05981445 C90.76837107 57.56086483 86.42937402 67.24256511 78.04052734 75.05200195 C74.57023978 78.1208141 71.18277131 80.23070125 66.97802734 82.17700195 C73.29949483 93.37441364 80.20083131 104.21463008 87.46240234 114.82543945 C88.18943359 115.89020508 88.91646484 116.9549707 89.66552734 118.05200195 C90.30876953 118.97754883 90.95201172 119.9030957 91.61474609 120.85668945 C92.97802734 123.17700195 92.97802734 123.17700195 92.97802734 126.17700195 C83.48140504 127.94084036 73.2695052 129.44499578 63.97802734 126.17700195 C54.7901523 118.16383939 50.31406755 105.47111537 45.35180664 94.62133789 C42.5863187 88.78160659 42.5863187 88.78160659 37.55322266 85.15063477 C34.77687262 84.76666051 32.34120342 84.76405687 29.54052734 84.92700195 C24.80708984 85.05075195 24.80708984 85.05075195 19.97802734 85.17700195 C19.97802734 98.37700195 19.97802734 111.57700195 19.97802734 125.17700195 C11.06802734 125.17700195 2.15802734 125.17700195 -7.02197266 125.17700195 C-7.02197266 84.25700195 -7.02197266 43.33700195 -7.02197266 1.17700195 C-4.5234346 -0.07226707 -2.79618463 0.02977841 0 0 Z " fill="#0D1821" transform="translate(384.02197265625,655.822998046875)"/>
<path d="M0 0 C8.58 0 17.16 0 26 0 C34.66780066 10.20563626 34.66780066 10.20563626 36.953125 14.9921875 C39.79397982 20.67207842 43.03415844 25.93483617 46.5 31.25 C47.63871996 33.04903684 48.77670242 34.84854063 49.9140625 36.6484375 C58.3846708 49.91076549 67.24404174 62.92530663 76 76 C76.0154612 74.59392235 76.0154612 74.59392235 76.03123474 73.15943909 C76.12880172 64.34471358 76.23151951 55.5300613 76.33933926 46.71545506 C76.39460922 42.18329414 76.44803559 37.65112682 76.49731445 33.11889648 C76.54489811 28.74871452 76.59723848 24.37861352 76.65294075 20.00852776 C76.67339158 18.33751365 76.69210006 16.66647731 76.70907402 14.99542427 C76.73305793 12.6629644 76.7631202 10.33065893 76.79467773 7.99829102 C76.8004332 7.3005809 76.80618866 6.60287079 76.81211853 5.88401794 C76.88594784 1.11405216 76.88594784 1.11405216 78 0 C86.58 0 95.16 0 104 0 C104 41.25 104 82.5 104 125 C79 125 79 125 74.1875 120.625 C73.0859376 118.43588999 72.02834854 116.22444187 71 114 C69.17128854 111.08560242 67.20113294 108.2708817 65.25 105.4375 C64.1983664 103.85906829 63.15021764 102.27830955 62.10546875 100.6953125 C61.58388184 99.90672852 61.06229492 99.11814453 60.52490234 98.30566406 C60.02168457 97.54479492 59.5184668 96.78392578 59 96 C48.12147028 79.58352078 37.04603518 63.30605193 26 47 C25.67 72.74 25.34 98.48 25 125 C16.75 125 8.5 125 0 125 C0 83.75 0 42.5 0 0 Z " fill="#0D1821" transform="translate(137,657)"/>
<path d="M0 0 C27.72 0 55.44 0 84 0 C84 8.25 84 16.5 84 25 C64.86 25 45.72 25 26 25 C26 33.58 26 42.16 26 51 C43.82 51 61.64 51 80 51 C80 58.59 80 66.18 80 74 C79 75 79 75 76.90562439 75.12025452 C75.98407059 75.11803391 75.06251678 75.11581329 74.11303711 75.11352539 C73.07203354 75.11344986 72.03102997 75.11337433 70.95848083 75.11329651 C69.8262056 75.10813522 68.69393036 75.10297394 67.52734375 75.09765625 C65.79817467 75.09553383 65.79817467 75.09553383 64.03407288 75.09336853 C60.33518936 75.08775005 56.63636536 75.07519442 52.9375 75.0625 C50.43684983 75.05748738 47.93619871 75.05292406 45.43554688 75.04882812 C39.29032295 75.0386235 33.14522845 75.01905169 27 75 C27 83.25 27 91.5 27 100 C29.62763306 99.99214478 29.62763306 99.99214478 32.30834961 99.98413086 C38.08388501 99.96803238 43.85941963 99.95652733 49.63497066 99.94818783 C53.13808885 99.94296011 56.64118285 99.9358645 60.14428711 99.92456055 C64.16780841 99.91165794 68.19130414 99.90677088 72.21484375 99.90234375 C73.47836166 99.89718246 74.74187958 99.89202118 76.04368591 99.88670349 C77.204814 99.88662796 78.36594208 99.88655243 79.56225586 99.88647461 C81.1044706 99.88314369 81.1044706 99.88314369 82.67784119 99.87974548 C85 100 85 100 86 101 C86.09932153 102.69558726 86.13080007 104.39525747 86.1328125 106.09375 C86.13410156 107.12371094 86.13539063 108.15367187 86.13671875 109.21484375 C86.13285156 110.29894531 86.12898438 111.38304687 86.125 112.5 C86.12886719 113.58410156 86.13273437 114.66820312 86.13671875 115.78515625 C86.13542969 116.81511719 86.13414062 117.84507812 86.1328125 118.90625 C86.13168457 119.85822266 86.13055664 120.81019531 86.12939453 121.79101562 C86 124 86 124 85 125 C82.35258118 125.09511403 79.73144543 125.12554328 77.08374023 125.11352539 C76.24108392 125.11364593 75.3984276 125.11376646 74.53023624 125.11389065 C71.78966233 125.11314142 69.04915557 125.10551277 66.30859375 125.09765625 C64.62178582 125.09618686 62.93497743 125.09516613 61.24816895 125.09460449 C54.97793903 125.08935126 48.70771886 125.07539018 42.4375 125.0625 C28.433125 125.041875 14.42875 125.02125 0 125 C0 83.75 0 42.5 0 0 Z " fill="#0D1821" transform="translate(269,657)"/>
<path d="M0 0 C13.179375 -0.020625 26.35875 -0.04125 39.9375 -0.0625 C44.1049585 -0.071604 48.27241699 -0.08070801 52.56616211 -0.09008789 C57.63977051 -0.09460449 57.63977051 -0.09460449 60.01197815 -0.09544373 C61.67527025 -0.09698327 63.33856122 -0.10050841 65.00184631 -0.10557556 C67.51549226 -0.11285309 70.02906977 -0.11390742 72.54272461 -0.11352539 C73.66153094 -0.11892255 73.66153094 -0.11892255 74.80293941 -0.12442875 C79.88597366 -0.11402634 79.88597366 -0.11402634 81 1 C81 8.92 81 16.84 81 25 C62.85 25 44.7 25 26 25 C26 33.91 26 42.82 26 52 C42.5 52 59 52 76 52 C76 60.25 76 68.5 76 77 C59.5 77 43 77 26 77 C26 92.84 26 108.68 26 125 C17.42 125 8.84 125 0 125 C0 83.75 0 42.5 0 0 Z " fill="#0C1720" transform="translate(687,657)"/>
<path d="M0 0 C1.36966027 0.04519101 2.73946358 0.08624768 4.109375 0.12304688 C7.45156772 0.22896143 10.78644958 0.37674272 14.125 0.5625 C12.62481509 4.66587659 10.61184313 8.33342974 8.37109375 12.06640625 C7.99813675 12.69395309 7.62517975 13.32149994 7.24092102 13.96806335 C6.01841244 16.02256459 4.79058828 18.07383001 3.5625 20.125 C2.70911862 21.55620107 1.85593087 22.98751761 1.00292969 24.41894531 C-5.33317009 35.03880629 -11.73254415 45.62023879 -18.17797852 56.17407227 C-19.4715508 58.29408904 -20.75045049 60.42313881 -22.01342773 62.56152344 C-23.875 65.5625 -23.875 65.5625 -25.87915039 68.13378906 C-33.34429794 78.41863978 -31.8761781 90.6299196 -31.8125 102.8125 C-31.82562627 105.11850966 -31.84187471 107.42450378 -31.86132812 109.73046875 C-31.90772495 115.34246775 -31.88990686 120.94900326 -31.875 126.5625 C-40.455 126.5625 -49.035 126.5625 -57.875 126.5625 C-57.83117187 123.15035156 -57.78734375 119.73820313 -57.7421875 116.22265625 C-57.73376853 112.85962984 -57.74256383 109.49704828 -57.75292969 106.1340332 C-57.7510019 103.82502935 -57.73162036 101.51596302 -57.69335938 99.20727539 C-57.45862624 84.17457443 -58.58082382 73.47879185 -67.6550293 61.22659302 C-69.28595643 59.00193759 -70.68880811 56.66284584 -72.09765625 54.29296875 C-73.04268875 52.77765801 -73.98930779 51.26333558 -74.9375 49.75 C-79.917231 41.74882486 -84.85022776 33.72028631 -89.74655151 25.6678772 C-90.48884447 24.44741083 -91.23176726 23.22732728 -91.97537231 22.00765991 C-93.02705411 20.28224772 -94.07605874 18.55520463 -95.125 16.828125 C-95.72828125 15.83586914 -96.3315625 14.84361328 -96.953125 13.82128906 C-99.33695349 9.77919777 -101.59603858 5.66463056 -103.875 1.5625 C-93.645 1.5625 -83.415 1.5625 -72.875 1.5625 C-63.45393284 18.18168588 -54.13118879 34.85117021 -44.875 51.5625 C-38.33842062 40.61297648 -32.02512162 29.55452007 -25.87451172 18.38305664 C-24.75740554 16.3684532 -23.62089411 14.36446329 -22.46337891 12.37280273 C-20.85075826 9.61818131 -20.85075826 9.61818131 -19.64208984 6.83227539 C-15.35346582 -1.62940097 -8.56679322 -0.49091307 0 0 Z " fill="#0D1721" transform="translate(882.875,655.4375)"/>
<path d="M0 0 C34.87218045 0 34.87218045 0 46.75390625 10.55859375 C54.62922761 18.78919276 55.59206349 28.75308935 55.47045898 39.64624023 C55.12482444 49.41709833 52.87893052 57.06320468 45.97265625 64.21875 C32.38275458 76.49002754 18.32603234 75 0 75 C0 50.25 0 25.5 0 0 Z " fill="#FCFCFC" transform="translate(526,682)"/>
<path d="M0 0 C2.53002752 3.04949398 3.85033479 5.88612637 5.12109375 9.62890625 C5.49733887 10.73645264 5.87358398 11.84399902 6.26123047 12.98510742 C6.64939941 14.16564697 7.03756836 15.34618652 7.4375 16.5625 C7.83855957 17.78106689 8.23961914 18.99963379 8.65283203 20.25512695 C11.82420235 30.09129984 14.37030547 39.79909248 16 50 C16.14663086 50.88091309 16.29326172 51.76182617 16.44433594 52.66943359 C19.57244476 72.03343626 20.86770719 92.52007476 18 112 C17 113 17 113 14.234375 113.54296875 C11 113 11 113 9.73242188 111.61181641 C8.46589375 109.5561191 7.34793383 107.4630098 6.25 105.3125 C5.38568752 103.73844485 4.51448309 102.16815608 3.63671875 100.6015625 C2.98002197 99.42835449 2.98002197 99.42835449 2.31005859 98.23144531 C-10.28566591 76.77693134 -31.41468224 58.14554906 -54 48 C-54 47.34 -54 46.68 -54 46 C-52.77990234 45.35998047 -52.77990234 45.35998047 -51.53515625 44.70703125 C-37.72670061 37.1737343 -22.89736208 27.40562467 -12.625 15.3125 C-12.05910156 14.64863281 -11.49320313 13.98476563 -10.91015625 13.30078125 C-7.24703565 8.88855623 -3.6112868 4.45473928 0 0 Z " fill="#524AD9" transform="translate(672,271)"/>
<path d="M0 0 C8.91 0 17.82 0 27 0 C27.02254711 16.15032231 27.04097922 32.30063126 27.05181217 48.45096493 C27.05697511 55.94933064 27.06401776 63.44768591 27.07543945 70.94604492 C27.08538637 77.47930504 27.09185344 84.01255759 27.09408849 90.54582506 C27.09539559 94.00721807 27.09848136 97.46858942 27.10573006 100.92997551 C27.11374407 104.78787527 27.11399113 108.64575357 27.11352539 112.50366211 C27.11712067 113.65955841 27.12071594 114.81545471 27.12442017 116.00637817 C27.1230455 117.05110794 27.12167084 118.09583771 27.12025452 119.17222595 C27.12117631 120.0857228 27.1220981 120.99921965 27.12304783 121.94039822 C27 124 27 124 26 125 C24.15840977 125.09959621 22.31303033 125.13080411 20.46875 125.1328125 C19.34855469 125.13410156 18.22835937 125.13539063 17.07421875 125.13671875 C15.89472656 125.13285156 14.71523438 125.12898437 13.5 125.125 C11.73076172 125.13080078 11.73076172 125.13080078 9.92578125 125.13671875 C8.80558594 125.13542969 7.68539062 125.13414062 6.53125 125.1328125 C5.49548828 125.13168457 4.45972656 125.13055664 3.39257812 125.12939453 C1 125 1 125 0 124 C-0.09600136 122.393108 -0.12187889 120.78198231 -0.12025452 119.17222595 C-0.12162918 118.12749619 -0.12300385 117.08276642 -0.12442017 116.00637817 C-0.12082489 114.85048187 -0.11722961 113.69458557 -0.11352539 112.50366211 C-0.11367142 111.29407333 -0.11381744 110.08448456 -0.1139679 108.83824158 C-0.11338893 105.51193649 -0.10835973 102.18569281 -0.10139394 98.8593986 C-0.09515978 95.38670071 -0.09455655 91.91400207 -0.09336853 88.44129944 C-0.0902554 81.86103807 -0.08204225 75.28079324 -0.07201904 68.70053917 C-0.06085734 61.21093888 -0.05534731 53.72133782 -0.05032361 46.2317313 C-0.03985962 30.82114298 -0.02151437 15.41057745 0 0 Z " fill="#0D1822" transform="translate(631,657)"/>
<path d="M0 0 C8.06440615 4.47835498 13.59198917 9.92309107 16.74609375 18.6640625 C19.1344002 27.69570413 17.98275013 36.71754726 13.37890625 44.8203125 C8.00987974 52.72084891 1.2057176 57.03608653 -8.12890625 59.0390625 C-16.38728549 59.68677852 -23.67818509 57.19963943 -30.12890625 52.0390625 C-36.17820256 46.36879478 -39.59093388 39.86983477 -40.51171875 31.6015625 C-40.75262667 24.14947747 -40.00437706 18.43422886 -36.12890625 12.0390625 C-35.78988281 11.41515625 -35.45085937 10.79125 -35.1015625 10.1484375 C-28.02758882 -1.43173294 -12.17438843 -5.41646388 0 0 Z " fill="#0DB1D7" transform="translate(420.12890625,438.9609375)"/>
<path d="M0 0 C7.99115921 4.41945849 12.41887875 10.50079837 15.24609375 19.2421875 C16.61883704 29.33342252 15.42770366 37.96422673 9.7734375 46.453125 C4.83736282 52.73115852 -1.91899078 56.65295515 -9.75390625 58.2421875 C-18.42756606 58.98991679 -25.44536572 56.46993244 -32.12890625 50.8671875 C-38.00122625 45.31453008 -41.36543227 39.60122687 -42.08984375 31.47265625 C-42.32754677 20.82434476 -40.88313127 12.87277872 -33.53515625 4.8125 C-23.9696029 -3.62029045 -11.55243761 -5.36033105 0 0 Z " fill="#0EB1D7" transform="translate(622.75390625,439.7578125)"/>
<path d="M0 0 C4.95 -0.0825 9.9 -0.165 15 -0.25 C17.31837891 -0.30462402 17.31837891 -0.30462402 19.68359375 -0.36035156 C28.87980981 -0.4345146 34.80972827 0.25550186 41.9375 6.625 C45.09276672 11.78816373 45.5773404 16.52496062 44.58984375 22.46875 C43.03004781 28.07280728 40.90143213 30.88947576 36 34 C31.19048897 35.64550104 27.04263517 36.24037898 21.97265625 36.1953125 C20.81258057 36.19031738 19.65250488 36.18532227 18.45727539 36.18017578 C17.00699951 36.16196777 15.55672363 36.14375977 14.0625 36.125 C9.421875 36.08375 4.78125 36.0425 0 36 C0 24.12 0 12.24 0 0 Z " fill="#FBFBFC" transform="translate(404,682)"/>
<path d="M0 0 C8.91 0 17.82 0 27 0 C27.02254711 16.15032231 27.04097922 32.30063126 27.05181217 48.45096493 C27.05697511 55.94933064 27.06401776 63.44768591 27.07543945 70.94604492 C27.08538637 77.47930504 27.09185344 84.01255759 27.09408849 90.54582506 C27.09539559 94.00721807 27.09848136 97.46858942 27.10573006 100.92997551 C27.11374407 104.78787527 27.11399113 108.64575357 27.11352539 112.50366211 C27.11712067 113.65955841 27.12071594 114.81545471 27.12442017 116.00637817 C27.1230455 117.05110794 27.12167084 118.09583771 27.12025452 119.17222595 C27.12117631 120.0857228 27.1220981 120.99921965 27.12304783 121.94039822 C27 124 27 124 26 125 C24.15840977 125.09959621 22.31303033 125.13080411 20.46875 125.1328125 C19.34855469 125.13410156 18.22835937 125.13539063 17.07421875 125.13671875 C15.89472656 125.13285156 14.71523438 125.12898437 13.5 125.125 C11.73076172 125.13080078 11.73076172 125.13080078 9.92578125 125.13671875 C8.80558594 125.13542969 7.68539062 125.13414062 6.53125 125.1328125 C5.49548828 125.13168457 4.45972656 125.13055664 3.39257812 125.12939453 C1 125 1 125 0 124 C-0.09600136 122.393108 -0.12187889 120.78198231 -0.12025452 119.17222595 C-0.12162918 118.12749619 -0.12300385 117.08276642 -0.12442017 116.00637817 C-0.12082489 114.85048187 -0.11722961 113.69458557 -0.11352539 112.50366211 C-0.11367142 111.29407333 -0.11381744 110.08448456 -0.1139679 108.83824158 C-0.11338893 105.51193649 -0.10835973 102.18569281 -0.10139394 98.8593986 C-0.09515978 95.38670071 -0.09455655 91.91400207 -0.09336853 88.44129944 C-0.0902554 81.86103807 -0.08204225 75.28079324 -0.07201904 68.70053917 C-0.06085734 61.21093888 -0.05534731 53.72133782 -0.05032361 46.2317313 C-0.03985962 30.82114298 -0.02151437 15.41057745 0 0 Z M3 1 C3 40.93 3 80.86 3 122 C9.93 122 16.86 122 24 122 C24 82.07 24 42.14 24 1 C17.07 1 10.14 1 3 1 Z " fill="#21282E" transform="translate(631,657)"/>
<path d="M0 0 C7.59 0 15.18 0 23 0 C23 0.33 23 0.66 23 1 C16.07 1 9.14 1 2 1 C2 41.26 2 81.52 2 123 C8.93 123 15.86 123 23 123 C23 97.26 23 71.52 23 45 C23.99 45 24.98 45 26 45 C25.67 71.4 25.34 97.8 25 125 C16.75 125 8.5 125 0 125 C0 83.75 0 42.5 0 0 Z " fill="#03080D" transform="translate(137,657)"/>
<path d="M0 0 C1.08807953 -0.00637985 2.17615906 -0.0127597 3.29721069 -0.01933289 C4.47739777 -0.02044571 5.65758484 -0.02155853 6.87353516 -0.02270508 C8.08200104 -0.02603348 9.29046692 -0.02936188 10.53555298 -0.03279114 C13.09612649 -0.03786185 15.65670663 -0.04019942 18.21728516 -0.04003906 C22.13927084 -0.04222334 26.06097437 -0.06037177 29.98291016 -0.0793457 C32.46728419 -0.08228 34.95165957 -0.08426455 37.43603516 -0.08520508 C38.61217377 -0.09239059 39.78831238 -0.09957611 41.00009155 -0.10697937 C42.64166733 -0.10236443 42.64166733 -0.10236443 44.31640625 -0.09765625 C45.7596376 -0.09979378 45.7596376 -0.09979378 47.23202515 -0.10197449 C49.87953932 0.15415854 51.51772137 0.79704548 53.78759766 2.14526367 C34.71448087 5.32411647 15.12380434 3.14526367 -4.21240234 3.14526367 C-4.21240234 42.74526367 -4.21240234 82.34526367 -4.21240234 123.14526367 C3.04759766 123.14526367 10.30759766 123.14526367 17.78759766 123.14526367 C17.78759766 110.60526367 17.78759766 98.06526367 17.78759766 85.14526367 C18.11759766 85.14526367 18.44759766 85.14526367 18.78759766 85.14526367 C18.78759766 98.01526367 18.78759766 110.88526367 18.78759766 124.14526367 C6.91259766 124.08276367 6.91259766 124.08276367 3.17089844 124.05517578 C2.2013623 124.05267822 1.23182617 124.05018066 0.23291016 124.04760742 C-1.25958252 124.0397522 -1.25958252 124.0397522 -2.78222656 124.03173828 C-5.22201007 123.98132217 -5.22201007 123.98132217 -7.21240234 125.14526367 C-7.21240234 84.22526367 -7.21240234 43.30526367 -7.21240234 1.14526367 C-4.66201694 -0.12992903 -2.85524552 0.01133046 0 0 Z " fill="#323C44" transform="translate(384.21240234375,655.854736328125)"/>
<path d="M0 0 C0.33 0 0.66 0 1 0 C1 8.25 1 16.5 1 25 C3.62763306 24.99214478 3.62763306 24.99214478 6.30834961 24.98413086 C12.08388501 24.96803238 17.85941963 24.95652733 23.63497066 24.94818783 C27.13808885 24.94296011 30.64118285 24.9358645 34.14428711 24.92456055 C38.16780841 24.91165794 42.19130414 24.90677088 46.21484375 24.90234375 C47.47836166 24.89718246 48.74187958 24.89202118 50.04368591 24.88670349 C51.204814 24.88662796 52.36594208 24.88655243 53.56225586 24.88647461 C55.1044706 24.88314369 55.1044706 24.88314369 56.67784119 24.87974548 C59 25 59 25 60 26 C60.08713831 27.70772358 60.10700007 29.41898649 60.09765625 31.12890625 C60.09282227 32.68061523 60.09282227 32.68061523 60.08789062 34.26367188 C60.07532227 35.8965918 60.07532227 35.8965918 60.0625 37.5625 C60.05798828 38.65498047 60.05347656 39.74746094 60.04882812 40.87304688 C60.03699826 43.58208495 60.02051543 46.29101599 60 49 C59.34 48.67 58.68 48.34 58 48 C55.37568851 47.90694844 52.77815204 47.87420385 50.15380859 47.88647461 C49.34397018 47.88632858 48.53413177 47.88618256 47.69975281 47.8860321 C45.01595404 47.88673023 42.33222419 47.89451796 39.6484375 47.90234375 C37.79041583 47.90420829 35.93239367 47.90563202 34.07437134 47.90663147 C29.17857512 47.91045385 24.28280845 47.92028177 19.38702393 47.93133545 C14.39343669 47.94155556 9.39984468 47.94613038 4.40625 47.95117188 C-5.39584634 47.96190427 -15.19792071 47.97897736 -25 48 C-25 47.67 -25 47.34 -25 47 C2.06 47 29.12 47 57 47 C57 40.73 57 34.46 57 28 C55.30883057 28.00523682 53.61766113 28.01047363 51.87524414 28.01586914 C46.29927804 28.03196803 40.72331527 28.04347285 35.14733219 28.05181217 C31.76528187 28.05703975 28.3832566 28.06413511 25.0012207 28.07543945 C21.11670223 28.08834267 17.23219403 28.09322924 13.34765625 28.09765625 C12.12788589 28.10281754 10.90811554 28.10797882 9.65138245 28.11329651 C7.96975258 28.11340981 7.96975258 28.11340981 6.25415039 28.11352539 C5.26153702 28.115746 4.26892365 28.11796661 3.24623108 28.12025452 C1 28 1 28 0 27 C-0.08758003 25.00035018 -0.10696576 22.9976389 -0.09765625 20.99609375 C-0.09443359 19.78115234 -0.09121094 18.56621094 -0.08789062 17.31445312 C-0.07951172 16.03505859 -0.07113281 14.75566406 -0.0625 13.4375 C-0.05798828 12.15423828 -0.05347656 10.87097656 -0.04882812 9.54882812 C-0.03699545 6.36583978 -0.02051068 3.18294238 0 0 Z " fill="#1F2831" transform="translate(295,732)"/>
<path d="M0 0 C0.33 0 0.66 0 1 0 C1 7.92 1 15.84 1 24 C-17.15 24 -35.3 24 -54 24 C-54 32.91 -54 41.82 -54 51 C-37.5 51 -21 51 -4 51 C-4.33 58.92 -4.66 66.84 -5 75 C-21.5 75 -38 75 -55 75 C-55 74.67 -55 74.34 -55 74 C-38.83 74 -22.66 74 -6 74 C-6 67.4 -6 60.8 -6 54 C-7.94261719 54.00902344 -9.88523437 54.01804687 -11.88671875 54.02734375 C-19.77150045 54.02635058 -27.64642155 53.85670507 -35.52758789 53.62768555 C-37.85487279 53.56129116 -40.18228146 53.50230452 -42.50976562 53.44335938 C-43.99220024 53.40149025 -45.47462274 53.35918966 -46.95703125 53.31640625 C-47.6516597 53.29969376 -48.34628815 53.28298126 -49.06196594 53.26576233 C-53.88564291 53.11435709 -53.88564291 53.11435709 -55 52 C-55.08775605 49.85441173 -55.10695219 47.70595579 -55.09765625 45.55859375 C-55.09515869 44.38353271 -55.09266113 43.20847168 -55.09008789 41.99780273 C-55.08098389 40.49290283 -55.07187988 38.98800293 -55.0625 37.4375 C-55.041875 32.673125 -55.02125 27.90875 -55 23 C-36.85 23 -18.7 23 0 23 C0 15.41 0 7.82 0 0 Z " fill="#1D252B" transform="translate(767,658)"/>
<path d="M0 0 C1.084021 0.00523682 2.16804199 0.01047363 3.28491211 0.01586914 C5.03964844 0.02070312 5.03964844 0.02070312 6.82983398 0.02563477 C8.67738281 0.03820312 8.67738281 0.03820312 10.56225586 0.05102539 C12.41560547 0.05779297 12.41560547 0.05779297 14.30639648 0.06469727 C17.37089703 0.07652931 20.43530307 0.09301366 23.49975586 0.11352539 C23.49975586 0.77352539 23.49975586 1.43352539 23.49975586 2.11352539 C22.83975586 2.11352539 22.17975586 2.11352539 21.49975586 2.11352539 C21.49975586 14.98352539 21.49975586 27.85352539 21.49975586 41.11352539 C21.16975586 41.11352539 20.83975586 41.11352539 20.49975586 41.11352539 C20.49975586 28.57352539 20.49975586 16.03352539 20.49975586 3.11352539 C13.56975586 3.11352539 6.63975586 3.11352539 -0.50024414 3.11352539 C-0.50024414 28.19352539 -0.50024414 53.27352539 -0.50024414 79.11352539 C-1.49024414 79.11352539 -2.48024414 79.11352539 -3.50024414 79.11352539 C-3.52336807 68.96086388 -3.54115948 58.80820859 -3.55205631 48.65552616 C-3.55728503 43.94172806 -3.56438248 39.22794792 -3.57568359 34.51416016 C-3.58651287 29.96897135 -3.59252106 25.42379987 -3.59512138 20.87859917 C-3.59697556 19.14057581 -3.60059603 17.40255345 -3.6059742 15.66453743 C-3.61318517 13.23873944 -3.61423506 10.81301393 -3.61376953 8.38720703 C-3.61736481 7.6614447 -3.62096008 6.93568237 -3.62466431 6.18792725 C-3.61207326 0.16400879 -3.61207326 0.16400879 0 0 Z " fill="#36424B" transform="translate(217.500244140625,656.886474609375)"/>
<path d="M0 0 C0.33 0 0.66 0 1 0 C1 39.6 1 79.2 1 120 C8.26 120 15.52 120 23 120 C23 105.15 23 90.3 23 75 C23.33 75 23.66 75 24 75 C23.99666908 75.85777542 23.99666908 75.85777542 23.99327087 76.73287964 C23.97119517 82.66973243 23.9560838 88.60657362 23.94506836 94.54345703 C23.94003091 96.76090976 23.93320078 98.97835916 23.92456055 101.19580078 C23.91246928 104.37793805 23.9067659 107.56003151 23.90234375 110.7421875 C23.89718246 111.73805878 23.89202118 112.73393005 23.88670349 113.75997925 C23.88662796 114.68078278 23.88655243 115.6015863 23.88647461 116.55029297 C23.88314369 117.76940872 23.88314369 117.76940872 23.87974548 119.01315308 C23.87415342 121.07527359 23.87415342 121.07527359 25 123 C16.42 123 7.84 123 -1 123 C-1.06313657 97.73748015 -0.82942692 72.48426425 -0.53643799 47.22369385 C-0.47483111 41.87896137 -0.41524841 36.5342063 -0.35546875 31.18945312 C-0.23890155 20.79294639 -0.12018309 10.39646552 0 0 Z " fill="#19232C" transform="translate(688,659)"/>
<path d="M0 0 C9.9 0 19.8 0 30 0 C30 0.66 30 1.32 30 2 C21.42 2.33 12.84 2.66 4 3 C4.33 4.32 4.66 5.64 5 7 C2.47411298 4.63707344 1.11179163 3.33537489 0 0 Z " fill="#050A0F" transform="translate(779,657)"/>
<path d="M0 0 C0.33 0 0.66 0 1 0 C1 9.57 1 19.14 1 29 C0.01 29.33 -0.98 29.66 -2 30 C-2.38297872 9.46808511 -2.38297872 9.46808511 0 0 Z " fill="#5C54DC" transform="translate(690,345)"/>
<path d="M0 0 C1.084021 0.00523682 2.16804199 0.01047363 3.28491211 0.01586914 C5.03964844 0.02070312 5.03964844 0.02070312 6.82983398 0.02563477 C8.67738281 0.03820312 8.67738281 0.03820312 10.56225586 0.05102539 C12.41560547 0.05779297 12.41560547 0.05779297 14.30639648 0.06469727 C17.37089703 0.07652931 20.43530307 0.09301366 23.49975586 0.11352539 C23.49975586 0.77352539 23.49975586 1.43352539 23.49975586 2.11352539 C15.24975586 2.11352539 6.99975586 2.11352539 -1.50024414 2.11352539 C-1.50024414 4.75352539 -1.50024414 7.39352539 -1.50024414 10.11352539 C-1.83024414 10.11352539 -2.16024414 10.11352539 -2.50024414 10.11352539 C-2.69436595 8.63521318 -2.88036545 7.15583223 -3.06274414 5.67602539 C-3.1671582 4.85231445 -3.27157227 4.02860352 -3.37915039 3.17993164 C-3.41911133 2.49801758 -3.45907227 1.81610352 -3.50024414 1.11352539 C-2.50024414 0.11352539 -2.50024414 0.11352539 0 0 Z " fill="#1D2023" transform="translate(217.500244140625,656.886474609375)"/>
<path d="M0 0 C8.91 0 17.82 0 27 0 C26.67 0.99 26.34 1.98 26 3 C17.75 3 9.5 3 1 3 C0.67 2.01 0.34 1.02 0 0 Z " fill="#1B232B" transform="translate(604,544)"/>
<path d="M0 0 C2 2 2 2 2.08203125 4.79296875 C1.57861243 11.13312748 1.01596459 16.3614575 -2 22 C-2.33 22 -2.66 22 -3 22 C-3.252443 17.45602606 -3.252443 17.45602606 -2.03125 15.25 C-0.65136099 12.23933306 -0.57271602 9.545267 -0.375 6.25 C-0.30023438 5.07953125 -0.22546875 3.9090625 -0.1484375 2.703125 C-0.09945313 1.81109375 -0.05046875 0.9190625 0 0 Z " fill="#23AFD7" transform="translate(436,461)"/>
<path d="M0 0 C2.20703125 -0.328125 2.20703125 -0.328125 4.8125 -0.25 C6.14861328 -0.21132813 6.14861328 -0.21132813 7.51171875 -0.171875 C10.07839181 0.00541482 12.51157815 0.33642084 15 1 C15 1.66 15 2.32 15 3 C9.39 3 3.78 3 -2 3 C-1.34 2.01 -0.68 1.02 0 0 Z " fill="#212B35" transform="translate(368,393)"/>
<path d="M0 0 C1.32 0.33 2.64 0.66 4 1 C1.69 3.64 -0.62 6.28 -3 9 C-3.66 8.67 -4.32 8.34 -5 8 C-2.89285714 2.00274725 -2.89285714 2.00274725 0 0 Z " fill="#4B42D7" transform="translate(361,259)"/>
<path d="M0 0 C0.87454834 0.04713135 1.74909668 0.0942627 2.65014648 0.14282227 C4.06650391 0.21533203 4.06650391 0.21533203 5.51147461 0.28930664 C6.50469727 0.34538086 7.49791992 0.40145508 8.52124023 0.45922852 C9.51833008 0.51143555 10.51541992 0.56364258 11.54272461 0.61743164 C14.01501545 0.74755221 16.48694653 0.88253033 18.95874023 1.02172852 C18.95874023 1.35172852 18.95874023 1.68172852 18.95874023 2.02172852 C15.66800361 2.24704824 12.37624604 2.44908833 9.08374023 2.64672852 C7.67801758 2.7434082 7.67801758 2.7434082 6.24389648 2.84204102 C4.90004883 2.91938477 4.90004883 2.91938477 3.52905273 2.99829102 C2.70163574 3.05065918 1.87421875 3.10302734 1.02172852 3.15698242 C-1.04125977 3.02172852 -1.04125977 3.02172852 -3.04125977 1.02172852 C-2.04125977 0.02172852 -2.04125977 0.02172852 0 0 Z " fill="#131F29" transform="translate(869.041259765625,656.978271484375)"/>
<path d="M0 0 C0 0.99 0 1.98 0 3 C-7.42857143 3.28571429 -7.42857143 3.28571429 -11 1 C-7.26513121 0.4254048 -3.78706732 0 0 0 Z " fill="#22282E" transform="translate(343,396)"/>
<path d="M0 0 C1.46726798 3.81489674 0.43336419 6.29011622 -1 10 C-3 7 -3 7 -2.75 3.875 C-2.37875 2.451875 -2.37875 2.451875 -2 1 C-1.34 0.67 -0.68 0.34 0 0 Z " fill="#192129" transform="translate(582,728)"/>
<path d="M0 0 C1 4 1 4 1 6 C-0.98 6.66 -2.96 7.32 -5 8 C-3.35 5.36 -1.7 2.72 0 0 Z " fill="#070B11" transform="translate(461,498)"/>
</svg>
